<svg id="Layer_1" height="512" viewBox="0 0 48 48" width="512" xmlns="http://www.w3.org/2000/svg" data-name="Layer 1"><path d="m41 15v26a4 4 0 0 1 -4 4h-26a4 4 0 0 1 -4-4v-34a4 4 0 0 1 4-4h19.51a2.7 2.7 0 0 1 .49.04 3.89 3.89 0 0 1 2.61 1.44l6.5 8a4.076 4.076 0 0 1 .89 2.52z" fill="#7da8ff"/><path d="m41 15h-7a3.009 3.009 0 0 1 -3-3v-8.96a3.89 3.89 0 0 1 2.61 1.44l6.5 8a4.076 4.076 0 0 1 .89 2.52z" fill="#a6c5fa"/><g fill="#f9f5f5"><path d="m25 18h-11a1 1 0 0 1 0-2h11a1 1 0 0 1 0 2z"/><path d="m25 13h-11a1 1 0 0 1 0-2h11a1 1 0 0 1 0 2z"/><path d="m34 23h-20a1 1 0 0 1 0-2h20a1 1 0 0 1 0 2z"/><path d="m34 28h-20a1 1 0 0 1 0-2h20a1 1 0 0 1 0 2z"/><path d="m34 33h-20a1 1 0 0 1 0-2h20a1 1 0 0 1 0 2z"/><path d="m34 39h-8a1 1 0 0 1 0-2h8a1 1 0 0 1 0 2z"/></g></svg>